<mxfile host="app.diagrams.net" modified="2023-10-31T07:04:06.007Z" agent="Mozilla/5.0 (Windows NT 10.0; Win64; x64) AppleWebKit/537.36 (KHTML, like Gecko) Chrome/118.0.0.0 Safari/537.36" version="22.0.8" etag="xljXRKlL1jHWKwK6RmXp" type="github">
  <diagram name="Page-1" id="cfIiEBX-c5t01OqQlswq">
    <mxGraphModel>
      <root>
        <mxCell id="0" />
        <mxCell id="1" parent="0" />
      </root>
    </mxGraphModel>
  </diagram>
</mxfile>
